Patient4_TMGait_0pt7_01_right_09_EMG.mot
version=1
nRows=30
nColumns=33
inDegrees=no
endheader
time	1LAddLong	2LGlutMax	3LGlutMed	4LIliopsoas	5LSemiMemb	6LBicFemLong	7LRecFem	8LVastMed	9LVastLat	10LGasMed	11LTibAnt	12lTibPost	13LPeroneusLong	14LSol	15LExtDigLong	16LFlexDigLong	17RAddLong	18RGlutMax	19RGlutMed	20RIliopsoas	21RSemiMemb	22RBicFemLong	23RRecFem	24RVastMed	25RVastLat	26RGasMed	27RTibAnt	28RTibPost	29RPeroneusLong	30RSol	31RExtDigLong	32RFlexDigLong
10.585	-0.032806	-0.032806	0.000763	-0.011902	-0.079803	-0.056	0.061035	0.010529	-0.095825	-0.080872	0.16586	-0.013733	-0.028229	-0.002441	-0.070801	-0.006866	0.003204	-0.12451	-0.24612	-0.020905	0.16449	-0.16205	-0.46646	0.054169	-0.011444	0.001984	0.025635	0.009613	-0.092926	0.010376	-0.001526	-0.005951
10.586	-0.064697	-0.00061	-0.036926	-0.015717	-0.12375	0.12451	0.080109	0.005035	-0.065155	-0.080414	0.17288	0.016327	0.093536	0.022278	-0.022888	-0.001373	0.010071	-0.082855	-0.094757	0.026855	0.19913	-0.050049	-0.43793	0.039215	-0.026855	-0.018921	0.02533	-0.000763	0.069885	0.12863	-0.003204	-0.002594
10.587	-0.083618	-0.003052	-0.024414	-0.011292	-0.1767	0.3389	0.063934	0.00946	-0.14358	-0.058899	-0.070953	0.008087	0.079498	0.083618	-0.014801	-0.011444	0.020752	-0.10025	-0.052338	0.10742	0.19531	0.13458	-0.42252	0.031891	-0.032349	-0.028992	0.007477	-0.007935	0.20477	0.23041	-0.002899	-0.006714
10.588	-0.057678	-0.022125	-0.079956	-0.018463	-0.13702	0.3537	0.066986	-0.001068	-0.20752	-0.037994	0.003357	0.012665	0.059052	0.057678	0.033264	-0.012817	0.016785	-0.12497	-0.24719	0.11002	0.22858	0.1207	-0.38544	-0.00824	-0.034943	-0.034637	-0.02594	0.002289	0.3595	0.24277	-0.006104	-0.011444
10.589	-0.04715	-0.063934	-0.094147	-0.01358	0.043335	0.1294	0.017395	0.003204	-0.29221	-0.012054	0.25284	-0.003052	0.036621	0.059662	-0.014496	-0.018921	0.015564	-0.064087	-0.34332	0.066986	0.26306	0.016632	-0.38208	-0.004425	-0.015411	-0.036163	-0.039825	0.008545	0.26733	0.10193	-0.006409	-0.011902
10.59	-0.029602	-0.054169	-0.084686	-0.007629	0.088196	-0.14618	-0.020905	0.005951	-0.16083	-0.025787	0.21179	0.010223	0.071259	0.044556	-0.08255	-0.007324	0.002747	-0.091858	-0.44754	-0.015717	0.28854	-0.068665	-0.39581	-0.012512	-0.038605	-0.034637	-0.037231	0.010071	0.14832	-0.066376	-0.001373	-0.01358
10.591	0.018463	0.036163	-0.09964	0.020447	0.10849	-0.21255	-0.053711	-0.006714	0.059357	-0.032349	0.057678	0.024567	0.096741	-0.007019	-0.082245	-0.012512	-0.00061	-0.15472	-0.49667	-0.082245	0.28854	-0.019226	-0.39871	-0.030975	-0.046082	-0.037994	-0.001831	0.011597	0.10696	-0.028076	-0.00351	-0.014038
10.592	0.041046	0.095673	-0.097351	0.006409	0.19073	-0.1564	-0.041656	-0.003204	0.13031	-0.031433	-0.072784	0.005035	0.068512	-0.037537	-0.033569	-0.003204	-0.005035	-0.10727	-0.3157	-0.12833	0.27435	0.093994	-0.39276	-0.000458	-0.029297	-0.043945	0.016174	0.003204	0.17242	-0.018005	0.000153	-0.016785
10.593	0.058746	0.071869	-0.10605	0.009003	0.13046	-0.17731	0.022125	-0.009155	0.03418	-0.03067	-0.27039	0.019989	0.11185	0.02121	-0.030975	-0.010834	-0.003357	-0.11704	-0.065918	-0.1033	0.29709	0.11124	-0.44571	0.049286	-0.030365	-0.035095	0.033722	-0.10559	0.13428	0.23285	-0.008087	-0.013123
10.594	0.049133	0.12375	0.011597	0	0.077515	-0.12558	0.028229	-0.007782	-0.15579	-0.032959	-0.24963	0.003052	0.21072	0.054321	0.055389	0.007477	0.001221	-0.10513	-0.31052	-0.001526	0.2713	0.1297	-0.41092	-0.012665	-0.031891	-0.025024	0.086823	0.005035	0.018768	0.62836	-0.002441	-0.016479
10.595	0.046234	0.11398	0.020294	0.015564	0.1091	-0.055847	0.14847	-0.008545	-0.16419	-0.009766	-0.16953	0.020294	0.2121	0.070801	0.28961	-0.01297	0.003052	-0.13443	-0.52841	0.18402	0.25024	0.22476	-0.41779	-0.038605	-0.054321	-0.018158	0.088043	0.039673	0.041962	0.50858	-0.002136	-0.018005
10.596	0.03479	0.11536	0.032196	0.005798	0.042114	0.049286	0.14526	-0.009613	-0.16419	-0.003357	-0.1532	0.011902	0.088806	0.063324	0.23056	-0.00885	-0.006104	-0.17197	-0.41367	0.27283	0.24933	0.13748	-0.43335	-0.006561	-0.048065	0.011139	0.031738	0.015411	0.11597	0.029297	-0.002136	-0.010529
10.597	0.034943	0.15091	0.092163	-0.002136	0.035858	0.4071	0.17471	-0.005493	-0.25955	-0.009766	-0.10132	0.010376	-0.018158	0.046234	0.13886	-0.003357	-0.000763	-0.23117	0.081635	0.14938	0.23132	0.066223	-0.41946	-0.018158	-0.053253	0.015564	0.034332	0.005188	0.10346	-0.1915	-0.002441	-0.010986
10.598	0.027618	0.14954	0.095673	-0.002441	0.033569	0.56549	0.18997	0.01358	-0.33508	-0.002289	-0.040741	0.010681	-0.04425	0.005493	0.1889	-0.003662	0.001068	-0.22156	0.34454	0.13001	0.21713	0.036011	-0.41931	-0.027618	-0.045776	0.009766	0.050507	-0.000458	0.10529	-0.31693	0.00061	0.000458
10.599	0.014038	0.16129	0.066681	-0.013123	0.033569	0.46478	0.11368	0.016937	-0.26535	0.006714	-0.023651	0.013123	-0.084686	0.056305	0.082397	-0.000305	0.005646	-0.21011	-0.15335	0.063782	0.19974	-0.02533	-0.44159	-0.032501	-0.036316	0.005493	0.064545	0.000458	0.15137	-0.2475	-0.002136	-0.014648
10.6	-0.011597	0.063477	0.084076	-0.011139	-0.10193	0.48889	-0.062408	0.013428	-0.16296	-0.058136	-0.030518	0.010376	0.54886	0.10803	0.032959	-0.003357	0.001373	-0.28793	-0.17227	0.029907	0.19486	-0.030823	-0.45792	-0.000305	-0.059052	0.009308	0.088654	0.00351	0.10117	-0.16235	-0.005341	-0.011139
10.601	-0.011444	0.023346	0.11185	-0.006409	-0.15381	0.31876	-0.03891	0.010834	-0.1445	-0.056763	-0.027161	0.023956	0.13565	0.14435	-0.03891	0	0.003204	-0.29159	-0.059509	0.020447	0.16541	-0.077972	-0.44998	-0.007019	-0.042877	0.012054	0.077362	0.000458	-0.13016	-0.1471	-0.002441	-0.009766
10.602	-0.012512	-0.009003	0.092468	0.000763	-0.062714	-0.15228	0.041504	0.014954	0.019684	0.018463	0.029297	0.009308	0.34973	0.006866	-0.19196	-0.017242	0.001831	-0.24689	0.1944	0.011749	0.13184	-0.14221	-0.45502	0.028687	-0.028229	0.0177	0.03952	0.002747	-0.14694	-0.24857	0.000153	-0.01297
10.603	-0.000458	-0.086212	0.04364	0.017548	0.078278	-0.466	-0.002594	0.007782	0.13596	0.034943	0.029449	0.014038	0.010376	-0.048065	-0.16998	-0.001373	0.012512	-0.24323	-0.10117	0.041199	0.11841	-0.14648	-0.45502	0.031281	-0.054321	0.025787	0.044403	0.001984	-0.14053	-0.39337	0.000458	-0.011902
10.604	0.00351	-0.17319	0.11627	0.013428	0.10819	-0.43732	0.010223	0.003204	0.074463	0.028381	0.004272	0.024109	-0.0383	-0.04715	-0.11246	0.007172	0.008087	-0.24735	0.15884	0.051422	0.084229	-0.17807	-0.40253	-0.01297	-0.030975	0.027771	0.035095	0.001068	-0.12543	-0.40375	0.004578	-0.003967
10.605	-0.001678	-0.16724	0.10284	-0.024261	0.083618	-0.36377	0.052338	0.007019	0.028992	-0.027008	0.007477	0.024261	-0.089111	0.083466	-0.00824	0.005341	-0.012665	-0.27878	-0.09491	0.001221	0.029755	-0.22614	-0.41534	-0.068207	-0.020294	0.02594	0.02594	0.001221	-0.16449	-0.37842	-0.003967	-0.007477
10.606	0.005493	-0.22079	0.079346	-0.016174	0.037231	-0.47089	-0.010529	0.007629	-0.050964	-0.04303	-0.010986	0.026093	0.032501	0.13718	0.075836	0.014343	-0.033112	-0.2858	-0.27161	-0.089569	0.003052	-0.13702	-0.39764	-0.047455	-0.030518	0.011597	0.042419	-0.000763	-0.12817	-0.35278	0.001373	-0.011902
10.607	-0.00061	-0.18494	0.06897	-0.006256	0.007324	-0.082245	-0.112	0.021515	-0.087433	-0.011444	-0.02182	0.031128	0.2478	0.028839	0.000305	0.005798	-0.10681	-0.29251	-0.14084	-0.11017	0.045929	-0.13855	-0.3894	-0.01297	-0.027618	0.003662	0.057526	-0.003967	-0.18402	-0.27802	-0.002441	-0.015564
10.608	-0.003357	-0.11246	0.031891	-0.004425	-0.043488	0.30594	-0.16464	0.019226	0.039063	0.03952	-0.002594	0.03006	0.28168	-0.11017	-0.10284	0.011597	-0.14893	-0.25757	0.007172	-0.064087	0.058746	-0.16281	-0.41977	-0.017853	-0.019379	0.003967	0.040588	-0.009155	-0.19959	-0.22995	0.000763	-0.017853
10.609	-0.012665	-0.15472	-0.011749	-0.02182	-0.082397	0.37537	-0.2092	0.00885	0.071259	0.031128	0.010223	0.041504	-0.177	-0.064545	-0.010681	0.018616	-0.12299	-0.25207	-0.097961	-0.037231	0.090027	-0.036163	-0.37888	-0.003662	-0.021515	0.016937	0.038757	-0.016022	-0.074158	-0.16876	-0.001831	-0.021973
10.61	-0.027771	-0.12024	-0.020294	0.001526	-0.094757	0.3154	-0.13687	-0.009308	-0.10254	0.016174	0.008087	0.039063	-0.23666	0.018921	0.013885	0.012512	-0.014648	-0.2066	-0.11154	-0.024414	0.14175	-0.021667	-0.35767	-0.008392	-0.016785	0.010071	0.09613	-0.029449	-0.17364	-0.16586	-0.005341	-0.014191
10.611	-0.033569	-0.14801	0.079498	0.003815	-0.085754	0.13641	-0.098267	0.02533	-0.18555	0.045013	0.044708	0.043182	-0.11215	-0.041962	-0.067291	0.014343	0.08606	-0.23651	-0.17624	-0.006409	0.18585	0.052795	-0.35461	-0.068207	-0.032806	0.010986	0.046539	-0.018616	0.12573	-0.043945	0.002747	-0.011749
10.612	-0.042114	-0.17105	0.056763	0.010071	-0.070801	0.028534	-0.049133	0.042114	-0.13641	0.028381	0.00885	0.043182	0.034027	-0.041351	-0.0177	0.014648	0.14221	-0.24353	-0.033417	-0.044861	0.20279	0.15945	-0.33264	-0.051575	-0.005493	-0.004883	0.011292	-0.012665	0.30991	0.17761	-0.000305	-0.005798
10.613	-0.033417	-0.16357	0.012665	0.016937	-0.002441	-0.10071	-0.001831	0.036926	0.042572	0.038757	0.009918	0.041199	-0.037231	-0.02121	0.004883	0.008392	0.18143	-0.21576	-0.085602	-0.099335	0.24384	0.19302	-0.37323	-0.006104	0.010529	-0.001221	0.003967	-0.011749	-0.23865	0.27176	-0.006256	-0.007019
10.614	-0.018311	-0.058899	0.053101	0.008698	0.11032	-0.43137	0.13473	0.012512	0.17914	0.054321	-0.022125	0.032654	-0.094452	0.018005	-0.019531	0.005951	0.16632	-0.1358	-0.12619	-0.13031	0.24445	0.21088	-0.36362	0.053864	0.039215	-0.003357	-0.018311	-0.059967	-0.45319	0.27466	-0.001526	-0.001068
